<?xml version="1.0" standalone="no"?><!DOCTYPE svg PUBLIC "-//W3C//DTD SVG 1.1//EN" "http://www.w3.org/Graphics/SVG/1.1/DTD/svg11.dtd"><svg t="1636358708357" class="icon" viewBox="0 0 1024 1024" version="1.1" xmlns="http://www.w3.org/2000/svg" p-id="6684" xmlns:xlink="http://www.w3.org/1999/xlink" width="60" height="60"><defs><style type="text/css"></style></defs><path d="M704 938.666667c0 10.666667-10.666667 21.333333-21.333333 21.333333H341.333333c-10.666667 0-21.333333-10.666667-21.333333-21.333333s8.533333-21.333333 21.333333-21.333334h341.333334c10.666667 0 21.333333 10.666667 21.333333 21.333334zM960 832H64c-36.266667 0-64-27.733333-64-64V128c0-36.266667 27.733333-64 64-64h896c36.266667 0 64 27.733333 64 64v640c0 36.266667-27.733333 64-64 64zM64 106.666667c-12.8 0-21.333333 8.533333-21.333333 21.333333v640c0 12.8 8.533333 21.333333 21.333333 21.333333h896c12.8 0 21.333333-8.533333 21.333333-21.333333V128c0-12.8-8.533333-21.333333-21.333333-21.333333H64z" p-id="6685" fill="#ffffff"></path><path d="M266.666667 725.333333c-12.8 0-21.333333-8.533333-21.333334-21.333333V362.666667c0-12.8 8.533333-21.333333 21.333334-21.333334s21.333333 8.533333 21.333333 21.333334v341.333333c0 12.8-8.533333 21.333333-21.333333 21.333333zM757.333333 725.333333c-12.8 0-21.333333-8.533333-21.333333-21.333333V320c0-12.8 8.533333-21.333333 21.333333-21.333333s21.333333 8.533333 21.333334 21.333333v384c0 12.8-8.533333 21.333333-21.333334 21.333333zM597.333333 725.333333h-4.266666c-10.666667 0-19.2-8.533333-19.2-19.2V445.866667c0-10.666667 8.533333-19.2 19.2-19.2h4.266666c10.666667 0 19.2 8.533333 19.2 19.2v260.266666c-2.133333 10.666667-10.666667 19.2-19.2 19.2zM430.933333 725.333333c-12.8 0-21.333333-8.533333-21.333333-21.333333V234.666667c0-12.8 8.533333-21.333333 21.333333-21.333334s21.333333 8.533333 21.333334 21.333334v469.333333c0 12.8-10.666667 21.333333-21.333334 21.333333z" p-id="6686" fill="#ffffff"></path></svg>